<svg width="64" height="64" viewBox="0 0 64 64" fill="none" xmlns="http://www.w3.org/2000/svg">
<rect width="64" height="64" rx="16" fill="url(#paint0_radial_2001_6)"/>
<path d="M30.2727 45.9091V16.8182H32.1364V45.9091H30.2727ZM36.5455 25.5455C36.4091 24.3939 35.8561 23.5 34.8864 22.8636C33.9167 22.2273 32.7273 21.9091 31.3182 21.9091C30.2879 21.9091 29.3864 22.0758 28.6136 22.4091C27.8485 22.7424 27.25 23.2008 26.8182 23.7841C26.3939 24.3674 26.1818 25.0303 26.1818 25.7727C26.1818 26.3939 26.3295 26.928 26.625 27.375C26.928 27.8144 27.3144 28.1818 27.7841 28.4773C28.2538 28.7652 28.7462 29.0038 29.2614 29.1932C29.7765 29.375 30.25 29.5227 30.6818 29.6364L33.0455 30.2727C33.6515 30.4318 34.3258 30.6515 35.0682 30.9318C35.8182 31.2121 36.5341 31.5947 37.2159 32.0795C37.9053 32.5568 38.4735 33.1705 38.9205 33.9205C39.3674 34.6705 39.5909 35.5909 39.5909 36.6818C39.5909 37.9394 39.2614 39.0758 38.6023 40.0909C37.9508 41.1061 36.9962 41.9129 35.7386 42.5114C34.4886 43.1098 32.9697 43.4091 31.1818 43.4091C29.5152 43.4091 28.072 43.1402 26.8523 42.6023C25.6402 42.0644 24.6856 41.3144 23.9886 40.3523C23.2992 39.3902 22.9091 38.2727 22.8182 37H25.7273C25.803 37.8788 26.0985 38.6061 26.6136 39.1818C27.1364 39.75 27.7955 40.1742 28.5909 40.4545C29.3939 40.7273 30.2576 40.8636 31.1818 40.8636C32.2576 40.8636 33.2235 40.6894 34.0795 40.3409C34.9356 39.9848 35.6136 39.4924 36.1136 38.8636C36.6136 38.2273 36.8636 37.4848 36.8636 36.6364C36.8636 35.8636 36.6477 35.2348 36.2159 34.75C35.7841 34.2652 35.2159 33.8712 34.5114 33.5682C33.8068 33.2652 33.0455 33 32.2273 32.7727L29.3636 31.9545C27.5455 31.4318 26.1061 30.6856 25.0455 29.7159C23.9848 28.7462 23.4545 27.4773 23.4545 25.9091C23.4545 24.6061 23.8068 23.4697 24.5114 22.5C25.2235 21.5227 26.178 20.7652 27.375 20.2273C28.5795 19.6818 29.9242 19.4091 31.4091 19.4091C32.9091 19.4091 34.2424 19.678 35.4091 20.2159C36.5758 20.7462 37.5 21.4735 38.1818 22.3977C38.8712 23.322 39.2348 24.3712 39.2727 25.5455H36.5455Z" fill="white"/>
<defs>
<radialGradient id="paint0_radial_2001_6" cx="0" cy="0" r="1" gradientUnits="userSpaceOnUse" gradientTransform="translate(32 32) rotate(90) scale(32)">
<stop offset="0.336538" stop-color="#239CFF"/>
</radialGradient>
</defs>
</svg>
