<svg xmlns="http://www.w3.org/2000/svg">
    <symbol id="dashboard" viewBox="0 0 24 24" fill="none" stroke="currentColor" stroke-width="2"
        stroke-linecap="round" stroke-linejoin="round"
        class="lucide lucide-layout-dashboard-icon lucide-layout-dashboard">
        <rect width="7" height="9" x="3" y="3" rx="1" />
        <rect width="7" height="5" x="14" y="3" rx="1" />
        <rect width="7" height="9" x="14" y="12" rx="1" />
        <rect width="7" height="5" x="3" y="16" rx="1" />
    </symbol>
    <symbol id="credit-card" viewBox="0 0 24 24"
        fill="none" stroke="currentColor" stroke-width="2" stroke-linecap="round"
        stroke-linejoin="round" class="lucide lucide-credit-card-icon lucide-credit-card">
        <rect
            width="20" height="14" x="2" y="5" rx="2" />
        <line x1="2" x2="22" y1="10" y2="10" />
    </symbol>
    <symbol id="goal" viewBox="0 0 24 24"
        fill="none" stroke="currentColor" stroke-width="2" stroke-linecap="round"
        stroke-linejoin="round" class="lucide lucide-goal-icon lucide-goal">
        <path
            d="M12 13V2l8 4-8 4" />
        <path d="M20.561 10.222a9 9 0 1 1-12.55-5.29" />
        <path
            d="M8.002 9.997a5 5 0 1 0 8.9 2.02" />
    </symbol>
    <symbol id="report" viewBox="0 0 24 24"
        fill="none" stroke="currentColor" stroke-width="2" stroke-linecap="round"
        stroke-linejoin="round" class="lucide lucide-chart-column-icon lucide-chart-column">
        <path
            d="M3 3v16a2 2 0 0 0 2 2h16" />
        <path d="M18 17V9" />
        <path d="M13 17V5" />
        <path
            d="M8 17v-3" />
    </symbol>
    <symbol id="arrow-up" viewBox="0 0 24 24"
        fill="none" stroke="currentColor" stroke-width="2" stroke-linecap="round"
        stroke-linejoin="round" class="lucide lucide-arrow-up-icon lucide-arrow-up">
        <path d="m5 12 7-7 7 7" />
        <path d="M12 19V5" />
    </symbol>
    <symbol id="arrow-down" viewBox="0 0 24 24"
        fill="none" stroke="currentColor" stroke-width="2" stroke-linecap="round"
        stroke-linejoin="round" class="lucide lucide-arrow-down-icon lucide-arrow-down">
        <path d="M12 5v14" />
        <path d="m19 12-7 7-7-7" />
    </symbol>
    <symbol id="move-down" viewBox="0 0 24 24"
        fill="none" stroke="currentColor" stroke-width="2" stroke-linecap="round"
        stroke-linejoin="round" class="lucide lucide-move-down-icon lucide-move-down">
        <path d="M8 18L12 22L16 18" />
        <path d="M12 2V22" />
    </symbol>
    <symbol id="move-up" viewBox="0 0 24 24"
        fill="none" stroke="currentColor" stroke-width="2" stroke-linecap="round"
        stroke-linejoin="round" class="lucide lucide-move-up-icon lucide-move-up">
        <path d="M8 6L12 2L16 6" />
        <path d="M12 2V22" />
    </symbol>
    <symbol id="hand-coins" viewBox="0 0 24 24"
        fill="none" stroke="currentColor" stroke-width="2" stroke-linecap="round"
        stroke-linejoin="round" class="lucide lucide-hand-coins-icon lucide-hand-coins">

        <path d="M11 15h2a2 2 0 1 0 0-4h-3c-.6 0-1.1.2-1.4.6L3 17" />
        <path
            d="m7 21 1.6-1.4c.3-.4.8-.6 1.4-.6h4c1.1 0 2.1-.4 2.8-1.2l4.6-4.4a2 2 0 0 0-2.75-2.91l-4.2 3.9" />
        <path d="m2 16 6 6" />
        <circle cx="16" cy="9" r="2.9" />
        <circle cx="6" cy="5" r="3" />
    </symbol>
</svg>