<svg xmlns="http://www.w3.org/2000/svg">
    <symbol id="dashboard" viewBox="0 0 24 24" fill="none" stroke="currentColor" stroke-width="2"
        stroke-linecap="round" stroke-linejoin="round"
        class="lucide lucide-layout-dashboard-icon lucide-layout-dashboard">
        <rect width="7" height="9" x="3" y="3" rx="1" />
        <rect width="7" height="5" x="14" y="3" rx="1" />
        <rect width="7" height="9" x="14" y="12" rx="1" />
        <rect width="7" height="5" x="3" y="16" rx="1" />
    </symbol>
    <symbol id="transaction" viewBox="0 0 24 24"
        fill="none" stroke="currentColor" stroke-width="2" stroke-linecap="round"
        stroke-linejoin="round" class="lucide lucide-credit-card-icon lucide-credit-card">
        <rect
            width="20" height="14" x="2" y="5" rx="2" />
        <line x1="2" x2="22" y1="10" y2="10" />
    </symbol>
    <symbol id="goal" viewBox="0 0 24 24"
        fill="none" stroke="currentColor" stroke-width="2" stroke-linecap="round"
        stroke-linejoin="round" class="lucide lucide-goal-icon lucide-goal">
        <path
            d="M12 13V2l8 4-8 4" />
        <path d="M20.561 10.222a9 9 0 1 1-12.55-5.29" />
        <path
            d="M8.002 9.997a5 5 0 1 0 8.9 2.02" />
    </symbol>
    <symbol id="report" viewBox="0 0 24 24"
        fill="none" stroke="currentColor" stroke-width="2" stroke-linecap="round"
        stroke-linejoin="round" class="lucide lucide-chart-column-icon lucide-chart-column">
        <path
            d="M3 3v16a2 2 0 0 0 2 2h16" />
        <path d="M18 17V9" />
        <path d="M13 17V5" />
        <path
            d="M8 17v-3" />
    </symbol>
</svg>